<svg width="844" height="61" viewBox="0 0 844 61" fill="none" xmlns="http://www.w3.org/2000/svg">
<path d="M44.08 60.08C30.96 60.08 20.6667 57.92 13.2 53.6C4.66667 48.64 0.4 40.7733 0.4 30C0.4 19.2267 4.66667 11.3867 13.2 6.48C20.6667 2.16 30.96 -1.90735e-06 44.08 -1.90735e-06C51.44 -1.90735e-06 58.2133 0.773331 64.4 2.32C70.5867 3.81333 75.68 6.37333 79.68 10C83.7333 13.5733 86.2933 18.4267 87.36 24.56H57.92C57.28 20.9333 55.8667 18.2667 53.68 16.56C51.4933 14.8 48.2933 13.92 44.08 13.92C38.9067 13.92 35.2267 15.2267 33.04 17.84C30.8533 20.4533 29.76 24.5067 29.76 30C29.76 35.4933 30.8533 39.5467 33.04 42.16C35.2267 44.7733 38.9067 46.08 44.08 46.08C48.2933 46.08 51.4933 45.2267 53.68 43.52C55.8667 41.76 57.28 39.0667 57.92 35.44H87.36C86.2933 41.5733 83.7333 46.4533 79.68 50.08C75.68 53.6533 70.5867 56.2133 64.4 57.76C58.2133 59.3067 51.44 60.08 44.08 60.08ZM136.204 60.08C122.978 60.08 112.551 57.92 104.924 53.6C96.1777 48.64 91.8044 40.7733 91.8044 30C91.8044 19.28 96.1777 11.44 104.924 6.48C112.551 2.16 122.978 -1.90735e-06 136.204 -1.90735e-06C149.378 -1.90735e-06 159.778 2.16 167.404 6.48C176.204 11.44 180.604 19.28 180.604 30C180.604 40.7733 176.204 48.64 167.404 53.6C159.778 57.92 149.378 60.08 136.204 60.08ZM136.204 46.08C141.378 46.08 145.164 44.7733 147.564 42.16C150.018 39.5467 151.244 35.4933 151.244 30C151.244 24.5067 150.018 20.4533 147.564 17.84C145.164 15.2267 141.378 13.92 136.204 13.92C131.031 13.92 127.218 15.2267 124.764 17.84C122.364 20.4533 121.164 24.5067 121.164 30C121.164 35.4933 122.364 39.5467 124.764 42.16C127.218 44.7733 131.031 46.08 136.204 46.08ZM272.282 58H238.202L204.682 20.4V58H187.642V2H221.802L255.242 39.6V2H272.282V58ZM333.543 58H304.183V15.36H277.863V2H359.783V15.36H333.543V58ZM445.685 58H415.685L410.965 49.44H374.965L370.245 58H351.125L382.005 2H414.805L445.685 58ZM403.765 36.48L392.965 16.88L382.085 36.48H403.765ZM487.596 60.08C474.476 60.08 464.182 57.92 456.716 53.6C448.182 48.64 443.916 40.7733 443.916 30C443.916 19.2267 448.182 11.3867 456.716 6.48C464.182 2.16 474.476 -1.90735e-06 487.596 -1.90735e-06C494.956 -1.90735e-06 501.729 0.773331 507.916 2.32C514.102 3.81333 519.196 6.37333 523.196 10C527.249 13.5733 529.809 18.4267 530.876 24.56H501.436C500.796 20.9333 499.382 18.2667 497.196 16.56C495.009 14.8 491.809 13.92 487.596 13.92C482.422 13.92 478.742 15.2267 476.556 17.84C474.369 20.4533 473.276 24.5067 473.276 30C473.276 35.4933 474.369 39.5467 476.556 42.16C478.742 44.7733 482.422 46.08 487.596 46.08C491.809 46.08 495.009 45.2267 497.196 43.52C499.382 41.76 500.796 39.0667 501.436 35.44H530.876C529.809 41.5733 527.249 46.4533 523.196 50.08C519.196 53.6533 514.102 56.2133 507.916 57.76C501.729 59.3067 494.956 60.08 487.596 60.08ZM589.48 58H560.12V15.36H533.8V2H615.72V15.36H589.48V58ZM709.939 60.08C697.193 60.08 687.326 58.24 680.339 54.56C671.859 50.1333 667.619 42.64 667.619 32.08V2H696.979V34.48C696.979 38.5867 698.099 41.5467 700.339 43.36C702.579 45.1733 705.779 46.08 709.939 46.08C714.099 46.08 717.299 45.1733 719.539 43.36C721.779 41.5467 722.899 38.5867 722.899 34.48V2H752.259V32.08C752.259 42.64 748.046 50.1333 739.619 54.56C732.579 58.24 722.686 60.08 709.939 60.08ZM800.925 60.08C795.752 60.08 790.658 59.8667 785.645 59.44C780.632 59.0133 776.098 58.16 772.045 56.88C768.045 55.5467 764.845 53.6 762.445 51.04C760.045 48.4267 758.845 44.9333 758.845 40.56H788.205C788.205 42.5867 788.712 44.08 789.725 45.04C790.792 46 792.258 46.64 794.125 46.96C795.992 47.28 798.152 47.44 800.605 47.44H803.565C806.285 47.44 808.552 47.2267 810.365 46.8C812.392 46.3733 813.405 45.1467 813.405 43.12C813.405 41.5733 811.805 40.4267 808.605 39.68C805.565 39.04 801.752 38.4267 797.165 37.84C791.725 37.1467 786.152 36.2133 780.445 35.04C774.792 33.8133 769.965 31.92 765.965 29.36C761.698 26.6933 759.565 22.8533 759.565 17.84C759.565 13.8933 760.658 10.6933 762.845 8.24C765.085 5.78666 768.178 3.94666 772.125 2.72C776.125 1.49333 780.632 0.746663 785.645 0.479997C790.658 0.159998 795.752 -1.90735e-06 800.925 -1.90735e-06C806.152 -1.90735e-06 811.218 0.213332 816.125 0.639999C821.085 1.01333 825.512 1.86666 829.405 3.2C833.352 4.48 836.498 6.42666 838.845 9.04C841.192 11.6 842.365 15.0667 842.365 19.44H813.645C813.645 17.4133 813.138 15.92 812.125 14.96C811.112 14 809.645 13.36 807.725 13.04C805.805 12.72 802.685 12.56 798.365 12.56C795.752 12.56 793.565 12.7733 791.805 13.2C790.045 13.6267 789.165 14.8 789.165 16.72V17.36C789.378 18.64 791.005 19.6533 794.045 20.4C797.085 21.1467 800.925 21.84 805.565 22.48C810.952 23.28 816.472 24.3467 822.125 25.68C827.832 26.96 832.685 28.8533 836.685 31.36C840.898 34.08 843.005 37.7867 843.005 42.48C843.005 46.6933 841.858 50.0267 839.565 52.48C837.272 54.9333 834.098 56.72 830.045 57.84C825.992 58.9067 821.432 59.5467 816.365 59.76C811.298 59.9733 806.152 60.08 800.925 60.08Z" fill="white"/>
</svg>
