<svg width="23" height="23" viewBox="0 0 23 23" fill="none" xmlns="http://www.w3.org/2000/svg">
<path fill-rule="evenodd" clip-rule="evenodd" d="M7.154 1.02175C8.27812 0.969996 8.63654 0.958496 11.5 0.958496C14.3635 0.958496 14.722 0.970954 15.8451 1.02175C16.9683 1.07254 17.735 1.25175 18.4058 1.51145C19.1082 1.77691 19.7455 2.19187 20.2726 2.72854C20.8093 3.25466 21.2233 3.891 21.4878 4.59441C21.7485 5.26525 21.9267 6.03191 21.9785 7.15316C22.0302 8.2792 22.0417 8.63762 22.0417 11.5002C22.0417 14.3637 22.0292 14.7221 21.9785 15.8462C21.9277 16.9675 21.7485 17.7341 21.4878 18.405C21.2233 19.1085 20.8086 19.7459 20.2726 20.2727C19.7455 20.8094 19.1082 21.2234 18.4058 21.4879C17.735 21.7486 16.9683 21.9268 15.847 21.9786C14.722 22.0303 14.3635 22.0418 11.5 22.0418C8.63654 22.0418 8.27812 22.0294 7.154 21.9786C6.03275 21.9278 5.26608 21.7486 4.59525 21.4879C3.89176 21.2234 3.25437 20.8087 2.72746 20.2727C2.19115 19.7463 1.77613 19.1092 1.51133 18.4059C1.25162 17.7351 1.07337 16.9684 1.02162 15.8472C0.969874 14.7211 0.958374 14.3627 0.958374 11.5002C0.958374 8.63666 0.970832 8.27825 1.02162 7.15508C1.07242 6.03191 1.25162 5.26525 1.51133 4.59441C1.77653 3.89107 2.19186 3.254 2.72842 2.72758C3.25458 2.19139 3.89133 1.77638 4.59429 1.51145C5.26512 1.25175 6.03179 1.0735 7.15304 1.02175H7.154ZM15.7598 2.91925C14.6482 2.86845 14.3147 2.85791 11.5 2.85791C8.68542 2.85791 8.35192 2.86845 7.24025 2.91925C6.21196 2.9662 5.65421 3.13775 5.28237 3.28245C4.79075 3.47412 4.43904 3.70125 4.07008 4.0702C3.72033 4.41046 3.45117 4.82468 3.28233 5.2825C3.13762 5.65433 2.96608 6.21208 2.91912 7.24037C2.86833 8.35204 2.85779 8.68554 2.85779 11.5002C2.85779 14.3148 2.86833 14.6483 2.91912 15.76C2.96608 16.7882 3.13762 17.346 3.28233 17.7178C3.451 18.175 3.72029 18.5899 4.07008 18.9301C4.41029 19.2799 4.82525 19.5492 5.28237 19.7179C5.65421 19.8626 6.21196 20.0341 7.24025 20.0811C8.35192 20.1319 8.68446 20.1424 11.5 20.1424C14.3156 20.1424 14.6482 20.1319 15.7598 20.0811C16.7881 20.0341 17.3459 19.8626 17.7177 19.7179C18.2093 19.5262 18.561 19.2991 18.93 18.9301C19.2798 18.5899 19.5491 18.175 19.7178 17.7178C19.8625 17.346 20.034 16.7882 20.081 15.76C20.1318 14.6483 20.1423 14.3148 20.1423 11.5002C20.1423 8.68554 20.1318 8.35204 20.081 7.24037C20.034 6.21208 19.8625 5.65433 19.7178 5.2825C19.5261 4.79087 19.299 4.43916 18.93 4.0702C18.5897 3.72048 18.1755 3.45132 17.7177 3.28245C17.3459 3.13775 16.7881 2.9662 15.7598 2.91925V2.91925ZM10.1536 14.7499C10.9055 15.0629 11.7429 15.1051 12.5225 14.8694C13.3022 14.6337 13.9758 14.1345 14.4283 13.4573C14.8809 12.7801 15.0843 11.9667 15.0038 11.1562C14.9232 10.3457 14.5638 9.58826 13.9869 9.01329C13.6191 8.64574 13.1745 8.36432 12.6849 8.18926C12.1953 8.01421 11.673 7.94988 11.1555 8.00092C10.6381 8.05196 10.1384 8.21708 9.69244 8.48441C9.24648 8.75174 8.86534 9.11463 8.57646 9.54694C8.28757 9.97925 8.09814 10.4702 8.02179 10.9845C7.94543 11.4989 7.98406 12.0237 8.13489 12.5213C8.28572 13.0189 8.545 13.4768 8.89407 13.8622C9.24313 14.2475 9.67329 14.5507 10.1536 14.7499ZM7.66862 7.66875C8.17177 7.1656 8.7691 6.76648 9.42649 6.49418C10.0839 6.22187 10.7885 6.08172 11.5 6.08172C12.2116 6.08172 12.9162 6.22187 13.5736 6.49418C14.231 6.76648 14.8283 7.1656 15.3315 7.66875C15.8346 8.1719 16.2337 8.76922 16.506 9.42662C16.7783 10.084 16.9185 10.7886 16.9185 11.5002C16.9185 12.2117 16.7783 12.9163 16.506 13.5737C16.2337 14.2311 15.8346 14.8284 15.3315 15.3316C14.3153 16.3477 12.9371 16.9186 11.5 16.9186C10.063 16.9186 8.68478 16.3477 7.66862 15.3316C6.65247 14.3154 6.0816 12.9372 6.0816 11.5002C6.0816 10.0631 6.65247 8.6849 7.66862 7.66875V7.66875ZM18.1202 6.88866C18.2449 6.77105 18.3447 6.62961 18.4137 6.47272C18.4828 6.31584 18.5197 6.14669 18.5221 5.9753C18.5246 5.80392 18.4927 5.63377 18.4283 5.47494C18.3639 5.31611 18.2682 5.17182 18.147 5.05062C18.0258 4.92942 17.8815 4.83376 17.7227 4.76933C17.5639 4.70489 17.3937 4.67297 17.2223 4.67547C17.0509 4.67797 16.8818 4.71483 16.7249 4.78387C16.568 4.85291 16.4266 4.95273 16.309 5.07741C16.0802 5.3199 15.955 5.64199 15.9598 5.9753C15.9647 6.30862 16.0993 6.62692 16.335 6.86264C16.5707 7.09835 16.889 7.23292 17.2223 7.23778C17.5556 7.24264 17.8777 7.11741 18.1202 6.88866V6.88866Z" fill="white"/>
</svg>
