<svg width="190" height="55" viewBox="0 0 190 55" fill="none" xmlns="http://www.w3.org/2000/svg">
<g clip-path="url(#clip0_73_28)">
<path d="M0 39.1749H38.8156V31.3731H7.73016V7.80171H38.8156V0H0V39.1749Z" fill="white"/>
<path d="M190.014 0H151.198V7.80171H190.014V0Z" fill="white"/>
<path d="M190.014 15.6866H151.198V23.4883H190.014V15.6866Z" fill="white"/>
<path d="M190.014 31.3731H151.198V39.1749H190.014V31.3731Z" fill="white"/>
<path d="M89.3019 0H81.5718V31.3731H58.2165V0H50.4863V39.1749H89.3019V0Z" fill="white"/>
<path d="M139.747 39.1749V15.6866H132.017V7.80171V0H100.931V39.1749H139.747ZM108.662 7.80171H124.3V15.6866H108.662V7.80171ZM108.662 31.3731V23.4883H132.017V31.3731H108.662Z" fill="white"/>
<path d="M20.7053 53.5311L16.0645 46.8519H15.4191V55H16.0645V48.3207L20.7053 55H21.3506V46.8519H20.7053V53.5311Z" fill="white"/>
<path d="M138.264 52.6858L135.463 46.8519H134.818V55H135.463V48.7365L137.88 53.7667H138.649L141.065 48.7365V55H141.71V46.8519H141.065L138.264 52.6858Z" fill="white"/>
<path d="M123.559 53.5311L118.918 46.8519H118.273V55H118.918V48.3207L123.559 55H124.204V46.8519H123.559V53.5311Z" fill="white"/>
<path d="M172.919 53.5311L168.279 46.8519H167.62V55H168.279V48.3207L172.919 55H173.565V46.8519H172.919V53.5311Z" fill="white"/>
<path d="M0.865005 46.8519V55H5.97268V54.3487H1.51033V51.2585H5.45093V50.5933H1.51033V47.5031H5.97268V46.8519H0.865005Z" fill="white"/>
<path d="M51.6397 55V54.3487H47.1911V51.2585H51.1317V50.5933H47.1911V47.5031H51.6397V46.8519H46.5457V55H51.6397Z" fill="white"/>
<path d="M157.542 55V54.3487H153.079V51.2585H157.02V50.5933H153.079V47.5031H157.542V46.8519H152.434V55H157.542Z" fill="white"/>
<path d="M31.209 46.8519V47.5031H33.6667V55H34.312V47.5031H36.7698V46.8519H31.209Z" fill="white"/>
<path d="M76.6014 46.8519V47.5031H79.0591V55H79.7044V47.5031H82.1622V46.8519H76.6014Z" fill="white"/>
<path d="M183.327 46.8519V47.5031H185.771V55H186.416V47.5031H188.874V46.8519H183.327Z" fill="white"/>
<path d="M107.426 46.8519H106.781V55H107.426V46.8519Z" fill="white"/>
<path d="M93.3386 46.8519L90.3042 55H90.9496L91.6498 53.1154H95.6591L96.3593 55H97.0046L93.9702 46.8519H93.3386ZM95.4256 52.4641H91.897L93.6544 47.7249L95.4256 52.4641Z" fill="white"/>
<path d="M61.7315 55H62.3768V51.4386H64.6835L66.6057 55H67.251L65.3151 51.4109C66.4135 51.2446 67.251 50.3023 67.251 49.1522C67.251 47.8912 66.235 46.8657 64.9855 46.8657H61.7315V55ZM64.9855 50.7874H62.3768V47.517H64.9855C65.878 47.517 66.6057 48.2514 66.6057 49.1522C66.6057 50.0529 65.878 50.7874 64.9855 50.7874Z" fill="white"/>
</g>
<defs>
<clipPath id="clip0_73_28">
<rect width="190" height="55" fill="white"/>
</clipPath>
</defs>
</svg>
