<svg width="437" height="132" viewBox="0 0 437 132" fill="none" xmlns="http://www.w3.org/2000/svg">
<g opacity="0.3" clip-path="url(#clip0_65_41)">
<path d="M0 94.0197H93.1574V75.2955H18.5524V18.7241H93.1574V0H0V94.0197Z" fill="white"/>
<path d="M456.033 0H362.875V18.7241H456.033V0Z" fill="white"/>
<path d="M456.033 37.6478H362.875V56.3719H456.033V37.6478Z" fill="white"/>
<path d="M456.033 75.2955H362.875V94.0197H456.033V75.2955Z" fill="white"/>
<path d="M214.325 0H195.772V75.2955H139.72V0H121.167V94.0197H214.325V0Z" fill="white"/>
<path d="M335.393 94.0197V37.6478H316.841V18.7241V0H242.236V94.0197H335.393ZM260.788 18.7241H298.321V37.6478H260.788V18.7241ZM260.788 75.2955V56.3719H316.841V75.2955H260.788Z" fill="white"/>
</g>
<defs>
<clipPath id="clip0_65_41">
<rect width="456" height="132" fill="white"/>
</clipPath>
</defs>
</svg>
