<svg width="1514" height="61" viewBox="0 0 1514 61" fill="none" xmlns="http://www.w3.org/2000/svg">
<path d="M13.2 53.6L12.6975 54.4646L12.6992 54.4656L13.2 53.6ZM13.2 6.48L13.6985 7.34691L13.7008 7.34556L13.2 6.48ZM64.4 2.32L64.1575 3.29017L64.1654 3.29208L64.4 2.32ZM79.68 10L79.0082 10.7409L79.0187 10.7501L79.68 10ZM87.36 24.56V25.56H88.5489L88.3452 24.3887L87.36 24.56ZM57.92 24.56L56.9352 24.7338L57.081 25.56H57.92V24.56ZM53.68 16.56L53.053 17.339L53.0588 17.3437L53.0647 17.3483L53.68 16.56ZM33.04 17.84L32.2731 17.1983L32.2731 17.1983L33.04 17.84ZM33.04 42.16L33.8069 41.5183L33.8069 41.5183L33.04 42.16ZM53.68 43.52L54.2953 44.3083L54.3012 44.3037L54.307 44.299L53.68 43.52ZM57.92 35.44V34.44H57.081L56.9352 35.2662L57.92 35.44ZM87.36 35.44L88.3452 35.6113L88.5489 34.44H87.36V35.44ZM79.68 50.08L80.3462 50.8258L80.3468 50.8252L79.68 50.08ZM64.4 57.76L64.6425 58.7301L64.4 57.76ZM44.08 59.08C31.0515 59.08 20.9559 56.932 13.7008 52.7344L12.6992 54.4656C20.3774 58.908 30.8685 61.08 44.08 61.08V59.08ZM13.7025 52.7354C5.50991 47.9735 1.4 40.4567 1.4 30H-0.6C-0.6 41.09 3.82342 49.3065 12.6975 54.4646L13.7025 52.7354ZM1.4 30C1.4 19.5435 5.50945 12.0556 13.6985 7.3469L12.7015 5.61309C3.82389 10.7177 -0.6 18.9099 -0.6 30H1.4ZM13.7008 7.34556C20.9559 3.14797 31.0515 0.999998 44.08 0.999998V-1C30.8685 -1 20.3774 1.17203 12.6992 5.61443L13.7008 7.34556ZM44.08 0.999998C51.3705 0.999998 58.0612 1.76607 64.1575 3.29014L64.6425 1.34985C58.3655 -0.219409 51.5095 -1 44.08 -1V0.999998ZM64.1654 3.29208C70.2184 4.75316 75.1528 7.24516 79.0083 10.7408L80.3517 9.25916C76.2072 5.5015 70.9549 2.8735 64.6346 1.34791L64.1654 3.29208ZM79.0187 10.7501C82.876 14.1506 85.3409 18.7864 86.3748 24.7313L88.3452 24.3887C87.2458 18.067 84.5907 12.9961 80.3413 9.24987L79.0187 10.7501ZM87.36 23.56H57.92V25.56H87.36V23.56ZM58.9048 24.3862C58.2362 20.5973 56.7334 17.6746 54.2953 15.7717L53.0647 17.3483C55 18.8588 56.3238 21.2693 56.9352 24.7338L58.9048 24.3862ZM54.307 15.781C51.8729 13.8218 48.4119 12.92 44.08 12.92V14.92C48.1748 14.92 51.1138 15.7782 53.053 17.339L54.307 15.781ZM44.08 12.92C38.7659 12.92 34.7308 14.261 32.2731 17.1983L33.8069 18.4817C35.7225 16.1924 39.0475 14.92 44.08 14.92V12.92ZM32.2731 17.1983C29.8677 20.073 28.76 24.4064 28.76 30H30.76C30.76 24.6069 31.839 20.8336 33.8069 18.4817L32.2731 17.1983ZM28.76 30C28.76 35.5936 29.8677 39.927 32.2731 42.8017L33.8069 41.5183C31.839 39.1664 30.76 35.3931 30.76 30H28.76ZM32.2731 42.8017C34.7308 45.739 38.7659 47.08 44.08 47.08V45.08C39.0475 45.08 35.7225 43.8076 33.8069 41.5183L32.2731 42.8017ZM44.08 47.08C48.4063 47.08 51.8623 46.2072 54.2953 44.3083L53.0647 42.7317C51.1243 44.2461 48.1803 45.08 44.08 45.08V47.08ZM54.307 44.299C56.7346 42.3451 58.2361 39.4031 58.9048 35.6138L56.9352 35.2662C56.3239 38.7302 54.9987 41.1749 53.053 42.741L54.307 44.299ZM57.92 36.44H87.36V34.44H57.92V36.44ZM86.3748 35.2687C85.3408 41.214 82.8751 45.8794 79.0132 49.3348L80.3468 50.8252C84.5916 47.0272 87.2458 41.9327 88.3452 35.6113L86.3748 35.2687ZM79.0138 49.3342C75.1556 52.7809 70.2164 55.2751 64.1575 56.7899L64.6425 58.7301C70.9569 57.1515 76.2044 54.5258 80.3462 50.8258L79.0138 49.3342ZM64.1575 56.7899C58.0612 58.3139 51.3705 59.08 44.08 59.08V61.08C51.5095 61.08 58.3655 60.2994 64.6425 58.7301L64.1575 56.7899ZM105.964 54.56L106.43 53.6752L106.427 53.6735L105.964 54.56ZM93.2444 2V0.999996H92.2444V2H93.2444ZM122.604 2H123.604V0.999996H122.604V2ZM125.964 43.36L126.594 42.5828L126.594 42.5828L125.964 43.36ZM145.164 43.36L144.535 42.5828L144.535 42.5828L145.164 43.36ZM148.524 2V0.999996H147.524V2H148.524ZM177.884 2H178.884V0.999996H177.884V2ZM165.244 54.56L165.708 55.4462L165.709 55.4453L165.244 54.56ZM135.564 59.08C122.891 59.08 113.211 57.2468 106.43 53.6752L105.498 55.4448C112.691 59.2332 122.744 61.08 135.564 61.08V59.08ZM106.427 53.6735C102.338 51.5392 99.3093 48.688 97.2947 45.1275C95.277 41.5616 94.2444 37.2262 94.2444 32.08H92.2444C92.2444 37.4938 93.3318 42.1851 95.554 46.1125C97.7794 50.0454 101.11 53.1541 105.502 55.4465L106.427 53.6735ZM94.2444 32.08V2H92.2444V32.08H94.2444ZM93.2444 3H122.604V0.999996H93.2444V3ZM121.604 2V34.48H123.604V2H121.604ZM121.604 34.48C121.604 38.7546 122.773 42.0634 125.335 44.1372L126.594 42.5828C124.675 41.03 123.604 38.4187 123.604 34.48H121.604ZM125.335 44.1372C127.817 46.1466 131.274 47.08 135.564 47.08V45.08C131.535 45.08 128.591 44.2001 126.594 42.5828L125.335 44.1372ZM135.564 47.08C139.855 47.08 143.311 46.1466 145.794 44.1372L144.535 42.5828C142.537 44.2001 139.594 45.08 135.564 45.08V47.08ZM145.794 44.1372C148.355 42.0634 149.524 38.7546 149.524 34.48H147.524C147.524 38.4187 146.453 41.03 144.535 42.5828L145.794 44.1372ZM149.524 34.48V2H147.524V34.48H149.524ZM148.524 3H177.884V0.999996H148.524V3ZM176.884 2V32.08H178.884V2H176.884ZM176.884 32.08C176.884 37.2272 175.858 41.5634 173.853 45.1299C171.851 48.6906 168.841 51.5411 164.779 53.6747L165.709 55.4453C170.075 53.1522 173.385 50.0427 175.596 46.1101C177.804 42.1832 178.884 37.4928 178.884 32.08H176.884ZM164.781 53.6738C157.945 57.247 148.237 59.08 135.564 59.08V61.08C148.385 61.08 158.463 59.233 165.708 55.4462L164.781 53.6738ZM186.55 58H185.55V59H186.55V58ZM186.55 2V0.999996H185.55V2H186.55ZM264.63 6.16L263.888 6.83058L263.895 6.83828L264.63 6.16ZM266.07 23.76L265.256 23.1788L265.252 23.1852L265.247 23.1918L266.07 23.76ZM259.99 28.88L259.566 27.9743L257.246 29.0601L259.688 29.8333L259.99 28.88ZM267.19 53.68L267.924 54.3594L267.93 54.3527L267.19 53.68ZM237.51 22.48L238.177 23.2252L238.179 23.2233L237.51 22.48ZM237.83 15.76L237.062 16.4002L237.081 16.4234L237.102 16.4454L237.83 15.76ZM215.91 14.32V13.32H214.91V14.32H215.91ZM215.91 23.84H214.91V24.84H215.91V23.84ZM240.39 44.08L239.647 43.411L239.637 43.4216L239.628 43.4324L240.39 44.08ZM215.91 34.8V33.8H214.91V34.8H215.91ZM215.91 45.68H214.91V46.68H215.91V45.68ZM257.03 57H186.55V59H257.03V57ZM187.55 58V2H185.55V58H187.55ZM186.55 3H255.03V0.999996H186.55V3ZM255.03 3C258.654 3 261.58 4.27663 263.888 6.83054L265.372 5.48946C262.667 2.4967 259.193 0.999996 255.03 0.999996V3ZM263.895 6.83828C266.279 9.42055 267.47 12.5093 267.47 16.16H269.47C269.47 12.024 268.101 8.44611 265.365 5.48172L263.895 6.83828ZM267.47 16.16C267.47 18.7842 266.732 21.1132 265.256 23.1788L266.884 24.3412C268.608 21.9268 269.47 19.1891 269.47 16.16H267.47ZM265.247 23.1918C263.803 25.2834 261.915 26.8748 259.566 27.9743L260.414 29.7857C263.078 28.5385 265.244 26.7166 266.893 24.3282L265.247 23.1918ZM259.688 29.8333C262.707 30.7894 265.212 32.4681 267.222 34.8802L268.758 33.5998C266.502 30.8919 263.673 28.9972 260.292 27.9267L259.688 29.8333ZM267.222 34.8802C269.204 37.2588 270.19 39.9918 270.19 43.12H272.19C272.19 39.5282 271.043 36.3412 268.758 33.5998L267.222 34.8802ZM270.19 43.12C270.19 46.9877 268.943 50.2652 266.45 53.0073L267.93 54.3527C270.77 51.2281 272.19 47.4656 272.19 43.12H270.19ZM266.456 53.0006C263.988 55.6658 260.873 57 257.03 57V59C261.401 59 265.058 57.4542 267.924 54.3594L266.456 53.0006ZM233.99 24.84C235.575 24.84 236.984 24.2924 238.177 23.2252L236.843 21.7348C236.009 22.481 235.072 22.84 233.99 22.84V24.84ZM238.179 23.2233C239.428 22.0992 240.11 20.7195 240.11 19.12H238.11C238.11 20.0805 237.725 20.9408 236.841 21.7367L238.179 23.2233ZM240.11 19.12C240.11 17.5517 239.599 16.1807 238.558 15.0746L237.102 16.4454C237.767 17.1526 238.11 18.0216 238.11 19.12H240.11ZM238.598 15.1198C237.603 13.9255 236.278 13.32 234.71 13.32V15.32C235.702 15.32 236.457 15.6745 237.062 16.4002L238.598 15.1198ZM234.71 13.32H215.91V15.32H234.71V13.32ZM214.91 14.32V23.84H216.91V14.32H214.91ZM215.91 24.84H233.99V22.84H215.91V24.84ZM236.71 46.68C238.515 46.68 240.034 46.043 241.152 44.7276L239.628 43.4324C238.933 44.2504 237.998 44.68 236.71 44.68V46.68ZM241.133 44.749C242.266 43.4906 242.83 41.9694 242.83 40.24H240.83C240.83 41.4973 240.434 42.536 239.647 43.411L241.133 44.749ZM242.83 40.24C242.83 38.4459 242.11 36.903 240.743 35.6601L239.397 37.1399C240.377 38.0303 240.83 39.0475 240.83 40.24H242.83ZM240.743 35.6601C239.398 34.4374 237.828 33.8 236.07 33.8V35.8C237.298 35.8 238.396 36.2293 239.397 37.1399L240.743 35.6601ZM236.07 33.8H215.91V35.8H236.07V33.8ZM214.91 34.8V45.68H216.91V34.8H214.91ZM215.91 46.68H236.71V44.68H215.91V46.68ZM353.779 58V59H354.779V58H353.779ZM278.659 58H277.659V59H278.659V58ZM278.659 2V0.999996H277.659V2H278.659ZM353.779 2H354.779V0.999996H353.779V2ZM353.779 14.64V15.64H354.779V14.64H353.779ZM308.019 14.64V13.64H307.019V14.64H308.019ZM308.019 23.68H307.019V24.68H308.019V23.68ZM348.979 23.68L349.964 23.8519L350.169 22.68H348.979V23.68ZM346.899 35.6V36.6H347.74L347.884 35.7719L346.899 35.6ZM308.019 35.6V34.6H307.019V35.6H308.019ZM308.019 44H307.019V45H308.019V44ZM353.779 44H354.779V43H353.779V44ZM353.779 57H278.659V59H353.779V57ZM279.659 58V2H277.659V58H279.659ZM278.659 3H353.779V0.999996H278.659V3ZM352.779 2V14.64H354.779V2H352.779ZM353.779 13.64H308.019V15.64H353.779V13.64ZM307.019 14.64V23.68H309.019V14.64H307.019ZM308.019 24.68H348.979V22.68H308.019V24.68ZM347.994 23.5081L345.914 35.4281L347.884 35.7719L349.964 23.8519L347.994 23.5081ZM346.899 34.6H308.019V36.6H346.899V34.6ZM307.019 35.6V44H309.019V35.6H307.019ZM308.019 45H353.779V43H308.019V45ZM352.779 44V58H354.779V44H352.779ZM484.092 58V59H485.092V58H484.092ZM408.972 58H407.972V59H408.972V58ZM408.972 2V0.999996H407.972V2H408.972ZM484.092 2H485.092V0.999996H484.092V2ZM484.092 14.64V15.64H485.092V14.64H484.092ZM438.332 14.64V13.64H437.332V14.64H438.332ZM438.332 23.68H437.332V24.68H438.332V23.68ZM479.292 23.68L480.277 23.8519L480.481 22.68H479.292V23.68ZM477.212 35.6V36.6H478.052L478.197 35.7719L477.212 35.6ZM438.332 35.6V34.6H437.332V35.6H438.332ZM438.332 44H437.332V45H438.332V44ZM484.092 44H485.092V43H484.092V44ZM484.092 57H408.972V59H484.092V57ZM409.972 58V2H407.972V58H409.972ZM408.972 3H484.092V0.999996H408.972V3ZM483.092 2V14.64H485.092V2H483.092ZM484.092 13.64H438.332V15.64H484.092V13.64ZM437.332 14.64V23.68H439.332V14.64H437.332ZM438.332 24.68H479.292V22.68H438.332V24.68ZM478.307 23.5081L476.227 35.4281L478.197 35.7719L480.277 23.8519L478.307 23.5081ZM477.212 34.6H438.332V36.6H477.212V34.6ZM437.332 35.6V44H439.332V35.6H437.332ZM438.332 45H484.092V43H438.332V45ZM483.092 44V58H485.092V44H483.092ZM576.579 58V59H577.579V58H576.579ZM542.499 58L541.752 58.6654L542.051 59H542.499V58ZM508.979 20.4L509.725 19.7346L507.979 17.7755V20.4H508.979ZM508.979 58V59H509.979V58H508.979ZM491.939 58H490.939V59H491.939V58ZM491.939 2V0.999996H490.939V2H491.939ZM526.099 2L526.846 1.33544L526.548 0.999996H526.099V2ZM559.539 39.6L558.792 40.2646L560.539 42.2292V39.6H559.539ZM559.539 2V0.999996H558.539V2H559.539ZM576.579 2H577.579V0.999996H576.579V2ZM576.579 57H542.499V59H576.579V57ZM543.245 57.3346L509.725 19.7346L508.232 21.0654L541.752 58.6654L543.245 57.3346ZM507.979 20.4V58H509.979V20.4H507.979ZM508.979 57H491.939V59H508.979V57ZM492.939 58V2H490.939V58H492.939ZM491.939 3H526.099V0.999996H491.939V3ZM525.352 2.66456L558.792 40.2646L560.286 38.9354L526.846 1.33544L525.352 2.66456ZM560.539 39.6V2H558.539V39.6H560.539ZM559.539 3H576.579V0.999996H559.539V3ZM575.579 2V58H577.579V2H575.579ZM637.839 58V59H638.839V58H637.839ZM608.479 58H607.479V59H608.479V58ZM608.479 15.36H609.479V14.36H608.479V15.36ZM582.159 15.36H581.159V16.36H582.159V15.36ZM582.159 2V0.999996H581.159V2H582.159ZM664.079 2H665.079V0.999996H664.079V2ZM664.079 15.36V16.36H665.079V15.36H664.079ZM637.839 15.36V14.36H636.839V15.36H637.839ZM637.839 57H608.479V59H637.839V57ZM609.479 58V15.36H607.479V58H609.479ZM608.479 14.36H582.159V16.36H608.479V14.36ZM583.159 15.36V2H581.159V15.36H583.159ZM582.159 3H664.079V0.999996H582.159V3ZM663.079 2V15.36H665.079V2H663.079ZM664.079 14.36H637.839V16.36H664.079V14.36ZM636.839 15.36V58H638.839V15.36H636.839ZM744.873 58V59H745.873V58H744.873ZM669.753 58H668.753V59H669.753V58ZM669.753 2V0.999996H668.753V2H669.753ZM744.873 2H745.873V0.999996H744.873V2ZM744.873 14.64V15.64H745.873V14.64H744.873ZM699.113 14.64V13.64H698.113V14.64H699.113ZM699.113 23.68H698.113V24.68H699.113V23.68ZM740.073 23.68L741.058 23.8519L741.263 22.68H740.073V23.68ZM737.993 35.6V36.6H738.834L738.978 35.7719L737.993 35.6ZM699.113 35.6V34.6H698.113V35.6H699.113ZM699.113 44H698.113V45H699.113V44ZM744.873 44H745.873V43H744.873V44ZM744.873 57H669.753V59H744.873V57ZM670.753 58V2H668.753V58H670.753ZM669.753 3H744.873V0.999996H669.753V3ZM743.873 2V14.64H745.873V2H743.873ZM744.873 13.64H699.113V15.64H744.873V13.64ZM698.113 14.64V23.68H700.113V14.64H698.113ZM699.113 24.68H740.073V22.68H699.113V24.68ZM739.088 23.5081L737.008 35.4281L738.978 35.7719L741.058 23.8519L739.088 23.5081ZM737.993 34.6H699.113V36.6H737.993V34.6ZM698.113 35.6V44H700.113V35.6H698.113ZM699.113 45H744.873V43H699.113V45ZM743.873 44V58H745.873V44H743.873ZM836.8 58V59H838.83L837.593 57.3906L836.8 58ZM808.08 58L807.286 58.608L807.586 59H808.08V58ZM794.48 40.24L795.274 39.632L794.974 39.24H794.48V40.24ZM782.16 40.24V39.24H781.16V40.24H782.16ZM782.16 58V59H783.16V58H782.16ZM752.8 58H751.8V59H752.8V58ZM752.8 2V0.999996H751.8V2H752.8ZM832.4 7.52L831.656 8.18839L831.662 8.19427L832.4 7.52ZM833.28 33.04L832.509 32.4034L832.508 32.4047L833.28 33.04ZM822.72 39.68L822.469 38.712L821.006 39.0912L821.927 40.2894L822.72 39.68ZM806.16 25.44L806.797 26.211L806.8 26.2082L806.16 25.44ZM802.32 15.36L802.389 14.3624L802.355 14.36H802.32V15.36ZM782.16 15.36V14.36H781.16V15.36H782.16ZM782.16 26.96H781.16V27.96H782.16V26.96ZM836.8 57H808.08V59H836.8V57ZM808.874 57.392L795.274 39.632L793.686 40.848L807.286 58.608L808.874 57.392ZM794.48 39.24H782.16V41.24H794.48V39.24ZM781.16 40.24V58H783.16V40.24H781.16ZM782.16 57H752.8V59H782.16V57ZM753.8 58V2H751.8V58H753.8ZM752.8 3H819.36V0.999996H752.8V3ZM819.36 3C824.491 3 828.557 4.73958 831.656 8.18837L833.144 6.85163C829.629 2.94041 825.002 0.999996 819.36 0.999996V3ZM831.662 8.19427C834.839 11.6744 836.44 15.9608 836.44 21.12H838.44C838.44 15.5058 836.681 10.7256 833.138 6.84573L831.662 8.19427ZM836.44 21.12C836.44 25.4876 835.126 29.2326 832.509 32.4034L834.051 33.6766C836.981 30.1274 838.44 25.9257 838.44 21.12H836.44ZM832.508 32.4047C829.928 35.541 826.594 37.6426 822.469 38.712L822.971 40.648C827.486 39.4774 831.192 37.1524 834.052 33.6753L832.508 32.4047ZM821.927 40.2894L836.007 58.6094L837.593 57.3906L823.513 39.0706L821.927 40.2894ZM801.6 27.96C803.611 27.96 805.366 27.3928 806.797 26.211L805.523 24.669C804.5 25.5138 803.215 25.96 801.6 25.96V27.96ZM806.8 26.2082C808.33 24.9333 809.08 23.2003 809.08 21.12H807.08C807.08 22.6663 806.55 23.8134 805.52 24.6718L806.8 26.2082ZM809.08 21.12C809.08 19.1551 808.548 17.4941 807.347 16.2929C806.157 15.103 804.45 14.5055 802.389 14.3624L802.251 16.3576C804.03 16.4811 805.203 16.977 805.933 17.7071C806.652 18.4259 807.08 19.5116 807.08 21.12H809.08ZM802.32 14.36H782.16V16.36H802.32V14.36ZM781.16 15.36V26.96H783.16V15.36H781.16ZM782.16 27.96H801.6V25.96H782.16V27.96ZM896.433 58V59H897.433V58H896.433ZM867.073 58H866.073V59H867.073V58ZM867.073 15.36H868.073V14.36H867.073V15.36ZM840.753 15.36H839.753V16.36H840.753V15.36ZM840.753 2V0.999996H839.753V2H840.753ZM922.673 2H923.673V0.999996H922.673V2ZM922.673 15.36V16.36H923.673V15.36H922.673ZM896.433 15.36V14.36H895.433V15.36H896.433ZM896.433 57H867.073V59H896.433V57ZM868.073 58V15.36H866.073V58H868.073ZM867.073 14.36H840.753V16.36H867.073V14.36ZM841.753 15.36V2H839.753V15.36H841.753ZM840.753 3H922.673V0.999996H840.753V3ZM921.673 2V15.36H923.673V2H921.673ZM922.673 14.36H896.433V16.36H922.673V14.36ZM895.433 15.36V58H897.433V15.36H895.433ZM1008.58 58V59H1010.27L1009.45 57.5171L1008.58 58ZM978.576 58L977.7 58.4829L977.985 59H978.576V58ZM973.856 49.44L974.731 48.9571L974.446 48.44H973.856V49.44ZM937.856 49.44V48.44H937.265L936.98 48.9571L937.856 49.44ZM933.136 58V59H933.726L934.011 58.4829L933.136 58ZM914.016 58L913.14 57.5171L912.322 59H914.016V58ZM944.896 2V0.999996H944.305L944.02 1.51712L944.896 2ZM977.696 2L978.571 1.51712L978.286 0.999996H977.696V2ZM966.656 36.48V37.48H968.348L967.531 35.9974L966.656 36.48ZM955.856 16.88L956.731 16.3974L955.859 14.8138L954.981 16.3947L955.856 16.88ZM944.976 36.48L944.101 35.9947L943.277 37.48H944.976V36.48ZM1008.58 57H978.576V59H1008.58V57ZM979.451 57.5171L974.731 48.9571L972.98 49.9229L977.7 58.4829L979.451 57.5171ZM973.856 48.44H937.856V50.44H973.856V48.44ZM936.98 48.9571L932.26 57.5171L934.011 58.4829L938.731 49.9229L936.98 48.9571ZM933.136 57H914.016V59H933.136V57ZM914.891 58.4829L945.771 2.48288L944.02 1.51712L913.14 57.5171L914.891 58.4829ZM944.896 3H977.696V0.999996H944.896V3ZM976.82 2.48288L1007.7 58.4829L1009.45 57.5171L978.571 1.51712L976.82 2.48288ZM967.531 35.9974L956.731 16.3974L954.98 17.3626L965.78 36.9626L967.531 35.9974ZM954.981 16.3947L944.101 35.9947L945.85 36.9653L956.73 17.3653L954.981 16.3947ZM944.976 37.48H966.656V35.48H944.976V37.48ZM1042.63 58V59H1043.63V58H1042.63ZM1013.27 58H1012.27V59H1013.27V58ZM1013.27 2V0.999996H1012.27V2H1013.27ZM1042.63 2H1043.63V0.999996H1042.63V2ZM1042.63 57H1013.27V59H1042.63V57ZM1014.27 58V2H1012.27V58H1014.27ZM1013.27 3H1042.63V0.999996H1013.27V3ZM1041.63 2V58H1043.63V2H1041.63ZM1136.81 58V59H1137.81V58H1136.81ZM1102.73 58L1101.99 58.6654L1102.28 59H1102.73V58ZM1069.21 20.4L1069.96 19.7346L1068.21 17.7755V20.4H1069.21ZM1069.21 58V59H1070.21V58H1069.21ZM1052.17 58H1051.17V59H1052.17V58ZM1052.17 2V0.999996H1051.17V2H1052.17ZM1086.33 2L1087.08 1.33544L1086.78 0.999996H1086.33V2ZM1119.77 39.6L1119.03 40.2646L1120.77 42.2292V39.6H1119.77ZM1119.77 2V0.999996H1118.77V2H1119.77ZM1136.81 2H1137.81V0.999996H1136.81V2ZM1136.81 57H1102.73V59H1136.81V57ZM1103.48 57.3346L1069.96 19.7346L1068.47 21.0654L1101.99 58.6654L1103.48 57.3346ZM1068.21 20.4V58H1070.21V20.4H1068.21ZM1069.21 57H1052.17V59H1069.21V57ZM1053.17 58V2H1051.17V58H1053.17ZM1052.17 3H1086.33V0.999996H1052.17V3ZM1085.59 2.66456L1119.03 40.2646L1120.52 38.9354L1087.08 1.33544L1085.59 2.66456ZM1120.77 39.6V2H1118.77V39.6H1120.77ZM1119.77 3H1136.81V0.999996H1119.77V3ZM1135.81 2V58H1137.81V2H1135.81ZM1248.79 58V59H1249.79V58H1248.79ZM1219.43 58H1218.43V59H1219.43V58ZM1219.43 21.68H1220.43L1218.52 21.2685L1219.43 21.68ZM1203.03 58V59H1203.68L1203.95 58.4115L1203.03 58ZM1179.83 58L1178.92 58.4115L1179.19 59H1179.83V58ZM1163.43 21.68L1164.35 21.2685L1162.43 21.68H1163.43ZM1163.43 58V59H1164.43V58H1163.43ZM1146.39 58H1145.39V59H1146.39V58ZM1146.39 2V0.999996H1145.39V2H1146.39ZM1181.19 2L1182.11 1.59428L1181.84 0.999996H1181.19V2ZM1195.43 34.08L1194.52 34.4857L1195.43 36.5276L1196.35 34.4914L1195.43 34.08ZM1209.91 2V0.999996H1209.27L1209 1.58859L1209.91 2ZM1248.79 2H1249.79V0.999996H1248.79V2ZM1248.79 57H1219.43V59H1248.79V57ZM1220.43 58V21.68H1218.43V58H1220.43ZM1218.52 21.2685L1202.12 57.5885L1203.95 58.4115L1220.35 22.0915L1218.52 21.2685ZM1203.03 57H1179.83V59H1203.03V57ZM1180.75 57.5885L1164.35 21.2685L1162.52 22.0915L1178.92 58.4115L1180.75 57.5885ZM1162.43 21.68V58H1164.43V21.68H1162.43ZM1163.43 57H1146.39V59H1163.43V57ZM1147.39 58V2H1145.39V58H1147.39ZM1146.39 3H1181.19V0.999996H1146.39V3ZM1180.28 2.40571L1194.52 34.4857L1196.35 33.6743L1182.11 1.59428L1180.28 2.40571ZM1196.35 34.4914L1210.83 2.4114L1209 1.58859L1194.52 33.6686L1196.35 34.4914ZM1209.91 3H1248.79V0.999996H1209.91V3ZM1247.79 2V58H1249.79V2H1247.79ZM1333.62 58V59H1334.62V58H1333.62ZM1258.5 58H1257.5V59H1258.5V58ZM1258.5 2V0.999996H1257.5V2H1258.5ZM1333.62 2H1334.62V0.999996H1333.62V2ZM1333.62 14.64V15.64H1334.62V14.64H1333.62ZM1287.86 14.64V13.64H1286.86V14.64H1287.86ZM1287.86 23.68H1286.86V24.68H1287.86V23.68ZM1328.82 23.68L1329.81 23.8519L1330.01 22.68H1328.82V23.68ZM1326.74 35.6V36.6H1327.58L1327.73 35.7719L1326.74 35.6ZM1287.86 35.6V34.6H1286.86V35.6H1287.86ZM1287.86 44H1286.86V45H1287.86V44ZM1333.62 44H1334.62V43H1333.62V44ZM1333.62 57H1258.5V59H1333.62V57ZM1259.5 58V2H1257.5V58H1259.5ZM1258.5 3H1333.62V0.999996H1258.5V3ZM1332.62 2V14.64H1334.62V2H1332.62ZM1333.62 13.64H1287.86V15.64H1333.62V13.64ZM1286.86 14.64V23.68H1288.86V14.64H1286.86ZM1287.86 24.68H1328.82V22.68H1287.86V24.68ZM1327.84 23.5081L1325.76 35.4281L1327.73 35.7719L1329.81 23.8519L1327.84 23.5081ZM1326.74 34.6H1287.86V36.6H1326.74V34.6ZM1286.86 35.6V44H1288.86V35.6H1286.86ZM1287.86 45H1333.62V43H1287.86V45ZM1332.62 44V58H1334.62V44H1332.62ZM1426.11 58V59H1427.11V58H1426.11ZM1392.03 58L1391.28 58.6654L1391.58 59H1392.03V58ZM1358.51 20.4L1359.26 19.7346L1357.51 17.7755V20.4H1358.51ZM1358.51 58V59H1359.51V58H1358.51ZM1341.47 58H1340.47V59H1341.47V58ZM1341.47 2V0.999996H1340.47V2H1341.47ZM1375.63 2L1376.38 1.33544L1376.08 0.999996H1375.63V2ZM1409.07 39.6L1408.32 40.2646L1410.07 42.2292V39.6H1409.07ZM1409.07 2V0.999996H1408.07V2H1409.07ZM1426.11 2H1427.11V0.999996H1426.11V2ZM1426.11 57H1392.03V59H1426.11V57ZM1392.78 57.3346L1359.26 19.7346L1357.76 21.0654L1391.28 58.6654L1392.78 57.3346ZM1357.51 20.4V58H1359.51V20.4H1357.51ZM1358.51 57H1341.47V59H1358.51V57ZM1342.47 58V2H1340.47V58H1342.47ZM1341.47 3H1375.63V0.999996H1341.47V3ZM1374.88 2.66456L1408.32 40.2646L1409.82 38.9354L1376.38 1.33544L1374.88 2.66456ZM1410.07 39.6V2H1408.07V39.6H1410.07ZM1409.07 3H1426.11V0.999996H1409.07V3ZM1425.11 2V58H1427.11V2H1425.11ZM1487.37 58V59H1488.37V58H1487.37ZM1458.01 58H1457.01V59H1458.01V58ZM1458.01 15.36H1459.01V14.36H1458.01V15.36ZM1431.69 15.36H1430.69V16.36H1431.69V15.36ZM1431.69 2V0.999996H1430.69V2H1431.69ZM1513.61 2H1514.61V0.999996H1513.61V2ZM1513.61 15.36V16.36H1514.61V15.36H1513.61ZM1487.37 15.36V14.36H1486.37V15.36H1487.37ZM1487.37 57H1458.01V59H1487.37V57ZM1459.01 58V15.36H1457.01V58H1459.01ZM1458.01 14.36H1431.69V16.36H1458.01V14.36ZM1432.69 15.36V2H1430.69V15.36H1432.69ZM1431.69 3H1513.61V0.999996H1431.69V3ZM1512.61 2V15.36H1514.61V2H1512.61ZM1513.61 14.36H1487.37V16.36H1513.61V14.36ZM1486.37 15.36V58H1488.37V15.36H1486.37Z" fill="white"/>
</svg>
