<svg width="24" height="19" viewBox="0 0 24 19" fill="none" xmlns="http://www.w3.org/2000/svg">
<path d="M24 2.25375C23.1174 2.6346 22.1693 2.89193 21.1726 3.00825C22.201 2.40896 22.9704 1.46576 23.3373 0.354625C22.371 0.913543 21.3135 1.30696 20.2107 1.51777C19.4691 0.746662 18.4868 0.235558 17.4164 0.0638109C16.3459 -0.107936 15.2472 0.0692844 14.2907 0.567957C13.3343 1.06663 12.5737 1.85885 12.127 2.82163C11.6803 3.78441 11.5725 4.86388 11.8203 5.89244C9.86244 5.79671 7.94711 5.30114 6.19863 4.4379C4.45016 3.57465 2.90761 2.36302 1.6711 0.881644C1.2483 1.59188 1.0052 2.41535 1.0052 3.29235C1.00473 4.08184 1.20437 4.85924 1.58641 5.55558C1.96846 6.25191 2.52109 6.84565 3.19528 7.2841C2.4134 7.25988 1.64877 7.05413 0.965031 6.684V6.74576C0.964952 7.85306 1.35827 8.92628 2.07823 9.78333C2.7982 10.6404 3.80048 11.2284 4.915 11.4478C4.18968 11.6389 3.42923 11.6671 2.69109 11.5301C3.00555 12.4829 3.61807 13.316 4.44291 13.9129C5.26776 14.5099 6.26363 14.8406 7.29111 14.859C5.5469 16.1924 3.39282 16.9157 1.17537 16.9125C0.782575 16.9126 0.39011 16.8903 0 16.8456C2.25083 18.2549 4.87097 19.0029 7.5469 19C16.6053 19 21.5573 11.6938 21.5573 5.35719C21.5573 5.15132 21.552 4.9434 21.5425 4.73753C22.5057 4.05917 23.3372 3.21916 23.9979 2.25684L24 2.25375V2.25375Z" fill="white"/>
</svg>
