<svg width="24" height="18" viewBox="0 0 24 18" fill="none" xmlns="http://www.w3.org/2000/svg">
<path d="M23.4975 2.8242C23.3616 2.27917 23.0969 1.78573 22.7316 1.39634C22.3559 0.994965 21.8955 0.707855 21.3937 0.562105C19.516 0.00557517 11.993 0.00557529 11.993 0.00557529C8.85676 -0.0345481 5.72128 0.141924 2.60427 0.533997C2.10252 0.690515 1.64296 0.984041 1.26645 1.38847C0.896497 1.78872 0.628533 2.28229 0.488551 2.82308C0.15229 4.86002 -0.0110893 6.92829 0.0006171 8.99999C-0.0113813 11.0698 0.151597 13.1374 0.488551 15.1769C0.625533 15.7155 0.892497 16.2068 1.26345 16.6037C1.6344 17.0005 2.09634 17.2872 2.60427 17.439C4.50701 17.9944 11.993 17.9944 11.993 17.9944C15.1332 18.0346 18.2727 17.8581 21.3937 17.466C21.8955 17.3202 22.3559 17.0331 22.7316 16.6318C23.0968 16.2424 23.3611 15.7489 23.4965 15.2039C23.8415 13.1677 24.0093 11.0986 23.9974 9.02585C24.0233 6.94432 23.8558 4.86544 23.4975 2.82308V2.8242ZM9.60133 12.8496V5.15151L15.8605 9.00112L9.60133 12.8496Z" fill="white"/>
</svg>
